<svg id="visual" viewBox="0 0 1920 1080" width="1920" height="1080" xmlns="http://www.w3.org/2000/svg" xmlns:xlink="http://www.w3.org/1999/xlink" version="1.1"><rect x="0" y="0" width="1920" height="1080" fill="#001220"></rect><defs><linearGradient id="grad1_0" x1="43.8%" y1="0%" x2="100%" y2="100%"><stop offset="14.444444444444446%" stop-color="#fbae3c" stop-opacity="1"></stop><stop offset="85.55555555555554%" stop-color="#fbae3c" stop-opacity="1"></stop></linearGradient></defs><defs><linearGradient id="grad1_1" x1="43.8%" y1="0%" x2="100%" y2="100%"><stop offset="14.444444444444446%" stop-color="#fbae3c" stop-opacity="1"></stop><stop offset="85.55555555555554%" stop-color="#f48350" stop-opacity="1"></stop></linearGradient></defs><defs><linearGradient id="grad1_2" x1="43.8%" y1="0%" x2="100%" y2="100%"><stop offset="14.444444444444446%" stop-color="#d96162" stop-opacity="1"></stop><stop offset="85.55555555555554%" stop-color="#f48350" stop-opacity="1"></stop></linearGradient></defs><defs><linearGradient id="grad1_3" x1="43.8%" y1="0%" x2="100%" y2="100%"><stop offset="14.444444444444446%" stop-color="#d96162" stop-opacity="1"></stop><stop offset="85.55555555555554%" stop-color="#af4b6d" stop-opacity="1"></stop></linearGradient></defs><defs><linearGradient id="grad1_4" x1="43.8%" y1="0%" x2="100%" y2="100%"><stop offset="14.444444444444446%" stop-color="#7c3e6b" stop-opacity="1"></stop><stop offset="85.55555555555554%" stop-color="#af4b6d" stop-opacity="1"></stop></linearGradient></defs><defs><linearGradient id="grad1_5" x1="43.8%" y1="0%" x2="100%" y2="100%"><stop offset="14.444444444444446%" stop-color="#7c3e6b" stop-opacity="1"></stop><stop offset="85.55555555555554%" stop-color="#49335c" stop-opacity="1"></stop></linearGradient></defs><defs><linearGradient id="grad1_6" x1="43.8%" y1="0%" x2="100%" y2="100%"><stop offset="14.444444444444446%" stop-color="#1d2540" stop-opacity="1"></stop><stop offset="85.55555555555554%" stop-color="#49335c" stop-opacity="1"></stop></linearGradient></defs><defs><linearGradient id="grad1_7" x1="43.8%" y1="0%" x2="100%" y2="100%"><stop offset="14.444444444444446%" stop-color="#1d2540" stop-opacity="1"></stop><stop offset="85.55555555555554%" stop-color="#001220" stop-opacity="1"></stop></linearGradient></defs><defs><linearGradient id="grad2_0" x1="0%" y1="0%" x2="56.3%" y2="100%"><stop offset="14.444444444444446%" stop-color="#fbae3c" stop-opacity="1"></stop><stop offset="85.55555555555554%" stop-color="#fbae3c" stop-opacity="1"></stop></linearGradient></defs><defs><linearGradient id="grad2_1" x1="0%" y1="0%" x2="56.3%" y2="100%"><stop offset="14.444444444444446%" stop-color="#f48350" stop-opacity="1"></stop><stop offset="85.55555555555554%" stop-color="#fbae3c" stop-opacity="1"></stop></linearGradient></defs><defs><linearGradient id="grad2_2" x1="0%" y1="0%" x2="56.3%" y2="100%"><stop offset="14.444444444444446%" stop-color="#f48350" stop-opacity="1"></stop><stop offset="85.55555555555554%" stop-color="#d96162" stop-opacity="1"></stop></linearGradient></defs><defs><linearGradient id="grad2_3" x1="0%" y1="0%" x2="56.3%" y2="100%"><stop offset="14.444444444444446%" stop-color="#af4b6d" stop-opacity="1"></stop><stop offset="85.55555555555554%" stop-color="#d96162" stop-opacity="1"></stop></linearGradient></defs><defs><linearGradient id="grad2_4" x1="0%" y1="0%" x2="56.3%" y2="100%"><stop offset="14.444444444444446%" stop-color="#af4b6d" stop-opacity="1"></stop><stop offset="85.55555555555554%" stop-color="#7c3e6b" stop-opacity="1"></stop></linearGradient></defs><defs><linearGradient id="grad2_5" x1="0%" y1="0%" x2="56.3%" y2="100%"><stop offset="14.444444444444446%" stop-color="#49335c" stop-opacity="1"></stop><stop offset="85.55555555555554%" stop-color="#7c3e6b" stop-opacity="1"></stop></linearGradient></defs><defs><linearGradient id="grad2_6" x1="0%" y1="0%" x2="56.3%" y2="100%"><stop offset="14.444444444444446%" stop-color="#49335c" stop-opacity="1"></stop><stop offset="85.55555555555554%" stop-color="#1d2540" stop-opacity="1"></stop></linearGradient></defs><defs><linearGradient id="grad2_7" x1="0%" y1="0%" x2="56.3%" y2="100%"><stop offset="14.444444444444446%" stop-color="#001220" stop-opacity="1"></stop><stop offset="85.55555555555554%" stop-color="#1d2540" stop-opacity="1"></stop></linearGradient></defs><g transform="translate(1920, 0)"><path d="M0 972C-114 922.3 -228 872.6 -343.3 828.7C-458.5 784.9 -575 746.9 -673.2 673.2C-771.4 599.5 -851.3 490.1 -898 372C-944.8 253.8 -958.4 126.9 -972 0L0 0Z" fill="#0c1c30"></path><path d="M0 850.5C-99.8 807 -199.5 763.5 -300.4 725.1C-401.2 686.8 -503.1 653.5 -589 589C-674.9 524.5 -744.8 428.8 -785.8 325.5C-826.7 222.1 -838.6 111 -850.5 0L0 0Z" fill="#312c4f"></path><path d="M0 729C-85.5 691.7 -171 654.4 -257.5 621.5C-343.9 588.6 -431.2 560.1 -504.9 504.9C-578.5 449.6 -638.4 367.6 -673.5 279C-708.6 190.4 -718.8 95.2 -729 0L0 0Z" fill="#623965"></path><path d="M0 607.5C-71.3 576.4 -142.5 545.4 -214.5 517.9C-286.6 490.5 -359.4 466.8 -420.7 420.7C-482.1 374.7 -532 306.3 -561.3 232.5C-590.5 158.6 -599 79.3 -607.5 0L0 0Z" fill="#96446e"></path><path d="M0 486C-57 461.1 -114 436.3 -171.6 414.4C-229.3 392.4 -287.5 373.4 -336.6 336.6C-385.7 299.7 -425.6 245.1 -449 186C-472.4 126.9 -479.2 63.5 -486 0L0 0Z" fill="#c55469"></path><path d="M0 364.5C-42.8 345.9 -85.5 327.2 -128.7 310.8C-171.9 294.3 -215.6 280.1 -252.4 252.4C-289.3 224.8 -319.2 183.8 -336.8 139.5C-354.3 95.2 -359.4 47.6 -364.5 0L0 0Z" fill="#e9705a"></path><path d="M0 243C-28.5 230.6 -57 218.1 -85.8 207.2C-114.6 196.2 -143.7 186.7 -168.3 168.3C-192.8 149.9 -212.8 122.5 -224.5 93C-236.2 63.5 -239.6 31.7 -243 0L0 0Z" fill="#fa9845"></path><path d="M0 121.5C-14.3 115.3 -28.5 109.1 -42.9 103.6C-57.3 98.1 -71.9 93.4 -84.1 84.1C-96.4 74.9 -106.4 61.3 -112.3 46.5C-118.1 31.7 -119.8 15.9 -121.5 0L0 0Z" fill="#fbae3c"></path></g><g transform="translate(0, 1080)"><path d="M0 -972C136.1 -969.2 272.3 -966.5 372 -898C471.7 -829.5 535 -695.3 589 -589C643.1 -482.7 687.9 -404.3 750.2 -310.7C812.5 -217.2 892.2 -108.6 972 0L0 0Z" fill="#0c1c30"></path><path d="M0 -850.5C119.1 -848.1 238.2 -845.7 325.5 -785.8C412.7 -725.8 468.1 -608.4 515.4 -515.4C562.7 -422.4 601.9 -353.7 656.4 -271.9C710.9 -190.1 780.7 -95 850.5 0L0 0Z" fill="#312c4f"></path><path d="M0 -729C102.1 -726.9 204.2 -724.9 279 -673.5C353.8 -622.2 401.2 -521.5 441.8 -441.8C482.3 -362 515.9 -303.2 562.6 -233.1C609.4 -162.9 669.2 -81.5 729 0L0 0Z" fill="#623965"></path><path d="M0 -607.5C85.1 -605.8 170.2 -604.1 232.5 -561.3C294.8 -518.5 334.4 -434.6 368.1 -368.1C401.9 -301.7 429.9 -252.7 468.9 -194.2C507.8 -135.8 557.7 -67.9 607.5 0L0 0Z" fill="#96446e"></path><path d="M0 -486C68.1 -484.6 136.1 -483.2 186 -449C235.8 -414.8 267.5 -347.7 294.5 -294.5C321.5 -241.4 343.9 -202.1 375.1 -155.4C406.2 -108.6 446.1 -54.3 486 0L0 0Z" fill="#c55469"></path><path d="M0 -364.5C51 -363.5 102.1 -362.4 139.5 -336.8C176.9 -311.1 200.6 -260.8 220.9 -220.9C241.2 -181 258 -151.6 281.3 -116.5C304.7 -81.5 334.6 -40.7 364.5 0L0 0Z" fill="#e9705a"></path><path d="M0 -243C34 -242.3 68.1 -241.6 93 -224.5C117.9 -207.4 133.7 -173.8 147.3 -147.3C160.8 -120.7 172 -101.1 187.5 -77.7C203.1 -54.3 223.1 -27.2 243 0L0 0Z" fill="#fa9845"></path><path d="M0 -121.5C17 -121.2 34 -120.8 46.5 -112.3C59 -103.7 66.9 -86.9 73.6 -73.6C80.4 -60.3 86 -50.5 93.8 -38.8C101.6 -27.2 111.5 -13.6 121.5 0L0 0Z" fill="#fbae3c"></path></g></svg>