<svg id="visual" viewBox="0 0 1920 1080" width="1920" height="1080" xmlns="http://www.w3.org/2000/svg" xmlns:xlink="http://www.w3.org/1999/xlink" version="1.1"><rect x="0" y="0" width="1920" height="1080" fill="#001220"></rect><defs><linearGradient id="grad1_0" x1="43.8%" y1="0%" x2="100%" y2="100%"><stop offset="14.444444444444446%" stop-color="#fbae3c" stop-opacity="1"></stop><stop offset="85.55555555555554%" stop-color="#fbae3c" stop-opacity="1"></stop></linearGradient></defs><defs><linearGradient id="grad1_1" x1="43.8%" y1="0%" x2="100%" y2="100%"><stop offset="14.444444444444446%" stop-color="#fbae3c" stop-opacity="1"></stop><stop offset="85.55555555555554%" stop-color="#f48350" stop-opacity="1"></stop></linearGradient></defs><defs><linearGradient id="grad1_2" x1="43.8%" y1="0%" x2="100%" y2="100%"><stop offset="14.444444444444446%" stop-color="#d96162" stop-opacity="1"></stop><stop offset="85.55555555555554%" stop-color="#f48350" stop-opacity="1"></stop></linearGradient></defs><defs><linearGradient id="grad1_3" x1="43.8%" y1="0%" x2="100%" y2="100%"><stop offset="14.444444444444446%" stop-color="#d96162" stop-opacity="1"></stop><stop offset="85.55555555555554%" stop-color="#af4b6d" stop-opacity="1"></stop></linearGradient></defs><defs><linearGradient id="grad1_4" x1="43.8%" y1="0%" x2="100%" y2="100%"><stop offset="14.444444444444446%" stop-color="#7c3e6b" stop-opacity="1"></stop><stop offset="85.55555555555554%" stop-color="#af4b6d" stop-opacity="1"></stop></linearGradient></defs><defs><linearGradient id="grad1_5" x1="43.8%" y1="0%" x2="100%" y2="100%"><stop offset="14.444444444444446%" stop-color="#7c3e6b" stop-opacity="1"></stop><stop offset="85.55555555555554%" stop-color="#49335c" stop-opacity="1"></stop></linearGradient></defs><defs><linearGradient id="grad1_6" x1="43.8%" y1="0%" x2="100%" y2="100%"><stop offset="14.444444444444446%" stop-color="#1d2540" stop-opacity="1"></stop><stop offset="85.55555555555554%" stop-color="#49335c" stop-opacity="1"></stop></linearGradient></defs><defs><linearGradient id="grad1_7" x1="43.8%" y1="0%" x2="100%" y2="100%"><stop offset="14.444444444444446%" stop-color="#1d2540" stop-opacity="1"></stop><stop offset="85.55555555555554%" stop-color="#001220" stop-opacity="1"></stop></linearGradient></defs><defs><linearGradient id="grad2_0" x1="0%" y1="0%" x2="56.3%" y2="100%"><stop offset="14.444444444444446%" stop-color="#fbae3c" stop-opacity="1"></stop><stop offset="85.55555555555554%" stop-color="#fbae3c" stop-opacity="1"></stop></linearGradient></defs><defs><linearGradient id="grad2_1" x1="0%" y1="0%" x2="56.3%" y2="100%"><stop offset="14.444444444444446%" stop-color="#f48350" stop-opacity="1"></stop><stop offset="85.55555555555554%" stop-color="#fbae3c" stop-opacity="1"></stop></linearGradient></defs><defs><linearGradient id="grad2_2" x1="0%" y1="0%" x2="56.3%" y2="100%"><stop offset="14.444444444444446%" stop-color="#f48350" stop-opacity="1"></stop><stop offset="85.55555555555554%" stop-color="#d96162" stop-opacity="1"></stop></linearGradient></defs><defs><linearGradient id="grad2_3" x1="0%" y1="0%" x2="56.3%" y2="100%"><stop offset="14.444444444444446%" stop-color="#af4b6d" stop-opacity="1"></stop><stop offset="85.55555555555554%" stop-color="#d96162" stop-opacity="1"></stop></linearGradient></defs><defs><linearGradient id="grad2_4" x1="0%" y1="0%" x2="56.3%" y2="100%"><stop offset="14.444444444444446%" stop-color="#af4b6d" stop-opacity="1"></stop><stop offset="85.55555555555554%" stop-color="#7c3e6b" stop-opacity="1"></stop></linearGradient></defs><defs><linearGradient id="grad2_5" x1="0%" y1="0%" x2="56.3%" y2="100%"><stop offset="14.444444444444446%" stop-color="#49335c" stop-opacity="1"></stop><stop offset="85.55555555555554%" stop-color="#7c3e6b" stop-opacity="1"></stop></linearGradient></defs><defs><linearGradient id="grad2_6" x1="0%" y1="0%" x2="56.3%" y2="100%"><stop offset="14.444444444444446%" stop-color="#49335c" stop-opacity="1"></stop><stop offset="85.55555555555554%" stop-color="#1d2540" stop-opacity="1"></stop></linearGradient></defs><defs><linearGradient id="grad2_7" x1="0%" y1="0%" x2="56.3%" y2="100%"><stop offset="14.444444444444446%" stop-color="#001220" stop-opacity="1"></stop><stop offset="85.55555555555554%" stop-color="#1d2540" stop-opacity="1"></stop></linearGradient></defs><g transform="translate(1920, 0)"><path d="M0 972C-123.5 956.3 -247 940.5 -372 898C-497 855.5 -623.4 786.2 -681.7 681.7C-739.9 577.1 -729.8 437.1 -766.8 317.6C-803.8 198.1 -887.9 99.1 -972 0L0 0Z" fill="#0c1c30"></path><path d="M0 850.5C-108.1 836.7 -216.1 822.9 -325.5 785.8C-434.8 748.6 -545.5 688 -596.4 596.4C-647.4 504.9 -638.6 382.5 -671 277.9C-703.4 173.4 -776.9 86.7 -850.5 0L0 0Z" fill="#312c4f"></path><path d="M0 729C-92.6 717.2 -185.2 705.4 -279 673.5C-372.7 641.6 -467.6 589.7 -511.2 511.2C-554.9 432.8 -547.4 327.8 -575.1 238.2C-602.9 148.6 -665.9 74.3 -729 0L0 0Z" fill="#623965"></path><path d="M0 607.5C-77.2 597.7 -154.4 587.8 -232.5 561.3C-310.6 534.7 -389.6 491.4 -426 426C-462.4 360.7 -456.1 273.2 -479.3 198.5C-502.4 123.8 -554.9 61.9 -607.5 0L0 0Z" fill="#96446e"></path><path d="M0 486C-61.7 478.1 -123.5 470.3 -186 449C-248.5 427.8 -311.7 393.1 -340.8 340.8C-369.9 288.5 -364.9 218.6 -383.4 158.8C-401.9 99.1 -444 49.5 -486 0L0 0Z" fill="#c55469"></path><path d="M0 364.5C-46.3 358.6 -92.6 352.7 -139.5 336.8C-186.4 320.8 -233.8 294.8 -255.6 255.6C-277.4 216.4 -273.7 163.9 -287.6 119.1C-301.4 74.3 -333 37.1 -364.5 0L0 0Z" fill="#e9705a"></path><path d="M0 243C-30.9 239.1 -61.7 235.1 -93 224.5C-124.2 213.9 -155.9 196.6 -170.4 170.4C-185 144.3 -182.5 109.3 -191.7 79.4C-201 49.5 -222 24.8 -243 0L0 0Z" fill="#fa9845"></path><path d="M0 121.5C-15.4 119.5 -30.9 117.6 -46.5 112.3C-62.1 106.9 -77.9 98.3 -85.2 85.2C-92.5 72.1 -91.2 54.6 -95.9 39.7C-100.5 24.8 -111 12.4 -121.5 0L0 0Z" fill="#fbae3c"></path></g><g transform="translate(0, 1080)"><path d="M0 -972C130.2 -960.7 260.5 -949.4 372 -898C483.4 -846.6 576.2 -755.1 661.9 -661.9C747.6 -568.6 826.2 -473.8 876.8 -363.2C927.3 -252.6 949.6 -126.3 972 0L0 0Z" fill="#0c1c30"></path><path d="M0 -850.5C114 -840.6 227.9 -830.7 325.5 -785.8C423 -740.8 504.1 -660.7 579.1 -579.1C654.1 -497.6 723 -414.5 767.2 -317.8C811.4 -221 830.9 -110.5 850.5 0L0 0Z" fill="#312c4f"></path><path d="M0 -729C97.7 -720.5 195.4 -712.1 279 -673.5C362.6 -634.9 432.1 -566.3 496.4 -496.4C560.7 -426.5 619.7 -355.3 657.6 -272.4C695.5 -189.4 712.2 -94.7 729 0L0 0Z" fill="#623965"></path><path d="M0 -607.5C81.4 -600.4 162.8 -593.4 232.5 -561.3C302.2 -529.1 360.1 -471.9 413.7 -413.7C467.2 -355.4 516.4 -296.1 548 -227C579.6 -157.9 593.5 -78.9 607.5 0L0 0Z" fill="#96446e"></path><path d="M0 -486C65.1 -480.4 130.2 -474.7 186 -449C241.7 -423.3 288.1 -377.5 330.9 -330.9C373.8 -284.3 413.1 -236.9 438.4 -181.6C463.6 -126.3 474.8 -63.1 486 0L0 0Z" fill="#c55469"></path><path d="M0 -364.5C48.8 -360.3 97.7 -356 139.5 -336.8C181.3 -317.5 216.1 -283.1 248.2 -248.2C280.3 -213.2 309.8 -177.7 328.8 -136.2C347.7 -94.7 356.1 -47.4 364.5 0L0 0Z" fill="#e9705a"></path><path d="M0 -243C32.6 -240.2 65.1 -237.4 93 -224.5C120.9 -211.6 144 -188.8 165.5 -165.5C186.9 -142.2 206.6 -118.4 219.2 -90.8C231.8 -63.1 237.4 -31.6 243 0L0 0Z" fill="#fa9845"></path><path d="M0 -121.5C16.3 -120.1 32.6 -118.7 46.5 -112.3C60.4 -105.8 72 -94.4 82.7 -82.7C93.4 -71.1 103.3 -59.2 109.6 -45.4C115.9 -31.6 118.7 -15.8 121.5 0L0 0Z" fill="#fbae3c"></path></g></svg>