<svg id="visual" viewBox="0 0 960 540" width="960" height="540" xmlns="http://www.w3.org/2000/svg" xmlns:xlink="http://www.w3.org/1999/xlink" version="1.1"><rect x="0" y="0" width="960" height="540" fill="#001220"></rect><defs><linearGradient id="grad1_0" x1="43.8%" y1="0%" x2="100%" y2="100%"><stop offset="14.444444444444446%" stop-color="#fbae3c" stop-opacity="1"></stop><stop offset="85.55555555555554%" stop-color="#fbae3c" stop-opacity="1"></stop></linearGradient></defs><defs><linearGradient id="grad1_1" x1="43.8%" y1="0%" x2="100%" y2="100%"><stop offset="14.444444444444446%" stop-color="#fbae3c" stop-opacity="1"></stop><stop offset="85.55555555555554%" stop-color="#f48350" stop-opacity="1"></stop></linearGradient></defs><defs><linearGradient id="grad1_2" x1="43.8%" y1="0%" x2="100%" y2="100%"><stop offset="14.444444444444446%" stop-color="#d96162" stop-opacity="1"></stop><stop offset="85.55555555555554%" stop-color="#f48350" stop-opacity="1"></stop></linearGradient></defs><defs><linearGradient id="grad1_3" x1="43.8%" y1="0%" x2="100%" y2="100%"><stop offset="14.444444444444446%" stop-color="#d96162" stop-opacity="1"></stop><stop offset="85.55555555555554%" stop-color="#af4b6d" stop-opacity="1"></stop></linearGradient></defs><defs><linearGradient id="grad1_4" x1="43.8%" y1="0%" x2="100%" y2="100%"><stop offset="14.444444444444446%" stop-color="#7c3e6b" stop-opacity="1"></stop><stop offset="85.55555555555554%" stop-color="#af4b6d" stop-opacity="1"></stop></linearGradient></defs><defs><linearGradient id="grad1_5" x1="43.8%" y1="0%" x2="100%" y2="100%"><stop offset="14.444444444444446%" stop-color="#7c3e6b" stop-opacity="1"></stop><stop offset="85.55555555555554%" stop-color="#49335c" stop-opacity="1"></stop></linearGradient></defs><defs><linearGradient id="grad1_6" x1="43.8%" y1="0%" x2="100%" y2="100%"><stop offset="14.444444444444446%" stop-color="#1d2540" stop-opacity="1"></stop><stop offset="85.55555555555554%" stop-color="#49335c" stop-opacity="1"></stop></linearGradient></defs><defs><linearGradient id="grad1_7" x1="43.8%" y1="0%" x2="100%" y2="100%"><stop offset="14.444444444444446%" stop-color="#1d2540" stop-opacity="1"></stop><stop offset="85.55555555555554%" stop-color="#001220" stop-opacity="1"></stop></linearGradient></defs><defs><linearGradient id="grad2_0" x1="0%" y1="0%" x2="56.3%" y2="100%"><stop offset="14.444444444444446%" stop-color="#fbae3c" stop-opacity="1"></stop><stop offset="85.55555555555554%" stop-color="#fbae3c" stop-opacity="1"></stop></linearGradient></defs><defs><linearGradient id="grad2_1" x1="0%" y1="0%" x2="56.3%" y2="100%"><stop offset="14.444444444444446%" stop-color="#f48350" stop-opacity="1"></stop><stop offset="85.55555555555554%" stop-color="#fbae3c" stop-opacity="1"></stop></linearGradient></defs><defs><linearGradient id="grad2_2" x1="0%" y1="0%" x2="56.3%" y2="100%"><stop offset="14.444444444444446%" stop-color="#f48350" stop-opacity="1"></stop><stop offset="85.55555555555554%" stop-color="#d96162" stop-opacity="1"></stop></linearGradient></defs><defs><linearGradient id="grad2_3" x1="0%" y1="0%" x2="56.3%" y2="100%"><stop offset="14.444444444444446%" stop-color="#af4b6d" stop-opacity="1"></stop><stop offset="85.55555555555554%" stop-color="#d96162" stop-opacity="1"></stop></linearGradient></defs><defs><linearGradient id="grad2_4" x1="0%" y1="0%" x2="56.3%" y2="100%"><stop offset="14.444444444444446%" stop-color="#af4b6d" stop-opacity="1"></stop><stop offset="85.55555555555554%" stop-color="#7c3e6b" stop-opacity="1"></stop></linearGradient></defs><defs><linearGradient id="grad2_5" x1="0%" y1="0%" x2="56.3%" y2="100%"><stop offset="14.444444444444446%" stop-color="#49335c" stop-opacity="1"></stop><stop offset="85.55555555555554%" stop-color="#7c3e6b" stop-opacity="1"></stop></linearGradient></defs><defs><linearGradient id="grad2_6" x1="0%" y1="0%" x2="56.3%" y2="100%"><stop offset="14.444444444444446%" stop-color="#49335c" stop-opacity="1"></stop><stop offset="85.55555555555554%" stop-color="#1d2540" stop-opacity="1"></stop></linearGradient></defs><defs><linearGradient id="grad2_7" x1="0%" y1="0%" x2="56.3%" y2="100%"><stop offset="14.444444444444446%" stop-color="#001220" stop-opacity="1"></stop><stop offset="85.55555555555554%" stop-color="#1d2540" stop-opacity="1"></stop></linearGradient></defs><g transform="translate(960, 0)"><path d="M0 486C-62.4 478.6 -124.8 471.1 -186 449C-247.2 426.9 -307.3 390 -338.7 338.7C-370.1 287.4 -372.9 221.5 -392.6 162.6C-412.4 103.8 -449.2 51.9 -486 0L0 0Z" fill="#0c1c30"></path><path d="M0 425.3C-54.6 418.7 -109.2 412.2 -162.7 392.9C-216.3 373.5 -268.9 341.3 -296.4 296.4C-323.9 251.4 -326.3 193.8 -343.6 142.3C-360.9 90.8 -393.1 45.4 -425.2 0L0 0Z" fill="#312c4f"></path><path d="M0 364.5C-46.8 358.9 -93.6 353.4 -139.5 336.8C-185.4 320.2 -230.5 292.5 -254 254C-277.6 215.5 -279.7 166.1 -294.5 122C-309.3 77.8 -336.9 38.9 -364.5 0L0 0Z" fill="#623965"></path><path d="M0 303.8C-39 299.1 -78 294.5 -116.2 280.6C-154.5 266.8 -192.1 243.8 -211.7 211.7C-231.3 179.6 -233 138.4 -245.4 101.7C-257.8 64.9 -280.8 32.4 -303.7 0L0 0Z" fill="#96446e"></path><path d="M0 243C-31.2 239.3 -62.4 235.6 -93 224.5C-123.6 213.4 -153.6 195 -169.4 169.4C-185.1 143.7 -186.4 110.8 -196.3 81.3C-206.2 51.9 -224.6 25.9 -243 0L0 0Z" fill="#c55469"></path><path d="M0 182.3C-23.4 179.5 -46.8 176.7 -69.7 168.4C-92.7 160.1 -115.2 146.3 -127 127C-138.8 107.8 -139.8 83.1 -147.2 61C-154.7 38.9 -168.5 19.5 -182.2 0L0 0Z" fill="#e9705a"></path><path d="M0 121.5C-15.6 119.6 -31.2 117.8 -46.5 112.3C-61.8 106.7 -76.8 97.5 -84.7 84.7C-92.5 71.8 -93.2 55.4 -98.2 40.7C-103.1 25.9 -112.3 13 -121.5 0L0 0Z" fill="#fa9845"></path><path d="M0 60.8C-7.8 59.8 -15.6 58.9 -23.2 56.1C-30.9 53.4 -38.4 48.8 -42.3 42.3C-46.3 35.9 -46.6 27.7 -49.1 20.3C-51.6 13 -56.2 6.5 -60.7 0L0 0Z" fill="#fbae3c"></path></g><g transform="translate(0, 540)"><path d="M0 -486C63.4 -469.7 126.8 -453.4 174.5 -421.3C222.2 -389.2 254.3 -341.2 302.6 -302.6C351 -264.1 415.7 -234.9 449 -186C482.3 -137.1 484.1 -68.6 486 0L0 0Z" fill="#0c1c30"></path><path d="M0 -425.2C55.5 -411 110.9 -396.7 152.7 -368.6C194.4 -340.5 222.5 -298.6 264.8 -264.8C307.1 -231.1 363.8 -205.5 392.9 -162.7C422 -120 423.6 -60 425.3 0L0 0Z" fill="#312c4f"></path><path d="M0 -364.5C47.5 -352.3 95.1 -340.1 130.9 -316C166.7 -291.9 190.7 -255.9 227 -227C263.3 -198 311.8 -176.1 336.8 -139.5C361.7 -102.8 363.1 -51.4 364.5 0L0 0Z" fill="#623965"></path><path d="M0 -303.7C39.6 -293.6 79.2 -283.4 109.1 -263.3C138.9 -243.2 158.9 -213.3 189.2 -189.2C219.4 -165 259.8 -146.8 280.6 -116.2C301.4 -85.7 302.6 -42.8 303.8 0L0 0Z" fill="#96446e"></path><path d="M0 -243C31.7 -234.9 63.4 -226.7 87.3 -210.6C111.1 -194.6 127.1 -170.6 151.3 -151.3C175.5 -132 207.9 -117.4 224.5 -93C241.1 -68.6 242.1 -34.3 243 0L0 0Z" fill="#c55469"></path><path d="M0 -182.2C23.8 -176.1 47.5 -170 65.4 -158C83.3 -145.9 95.3 -128 113.5 -113.5C131.6 -99 155.9 -88.1 168.4 -69.7C180.9 -51.4 181.6 -25.7 182.3 0L0 0Z" fill="#e9705a"></path><path d="M0 -121.5C15.8 -117.4 31.7 -113.4 43.6 -105.3C55.6 -97.3 63.6 -85.3 75.7 -75.7C87.8 -66 103.9 -58.7 112.3 -46.5C120.6 -34.3 121 -17.1 121.5 0L0 0Z" fill="#fa9845"></path><path d="M0 -60.7C7.9 -58.7 15.8 -56.7 21.8 -52.7C27.8 -48.6 31.8 -42.7 37.8 -37.8C43.9 -33 52 -29.4 56.1 -23.2C60.3 -17.1 60.5 -8.6 60.8 0L0 0Z" fill="#fbae3c"></path></g></svg>