<svg id="visual" viewBox="0 0 900 600" width="900" height="600" xmlns="http://www.w3.org/2000/svg" xmlns:xlink="http://www.w3.org/1999/xlink" version="1.1"><g transform="translate(438.7175465714879 328.42743087039196)"><path d="M159.4 -191C190.3 -164.1 187.7 -98.4 188.3 -41.1C189 16.1 192.8 64.8 170.5 93.7C148.2 122.7 99.7 131.8 57.2 139.7C14.7 147.5 -21.9 154.1 -59.6 147.5C-97.3 140.8 -136.1 120.9 -153.8 89.3C-171.4 57.7 -168 14.3 -159.2 -26.8C-150.4 -67.8 -136.2 -106.7 -108.8 -134.2C-81.4 -161.7 -40.7 -177.8 11.8 -191.9C64.3 -205.9 128.6 -217.9 159.4 -191" fill="#04365D"></path></g></svg>