<svg id="visual" viewBox="0 0 900 600" width="900" height="600" xmlns="http://www.w3.org/2000/svg" xmlns:xlink="http://www.w3.org/1999/xlink" version="1.1"><rect x="0" y="0" width="900" height="600" fill="#F4EBE5"></rect><defs><linearGradient id="grad1_0" x1="33.3%" y1="0%" x2="100%" y2="100%"><stop offset="20%" stop-color="#423cfa" stop-opacity="1"></stop><stop offset="80%" stop-color="#423cfa" stop-opacity="1"></stop></linearGradient></defs><defs><linearGradient id="grad1_1" x1="33.3%" y1="0%" x2="100%" y2="100%"><stop offset="20%" stop-color="#423cfa" stop-opacity="1"></stop><stop offset="80%" stop-color="#b32ed9" stop-opacity="1"></stop></linearGradient></defs><defs><linearGradient id="grad1_2" x1="33.3%" y1="0%" x2="100%" y2="100%"><stop offset="20%" stop-color="#e33dbb" stop-opacity="1"></stop><stop offset="80%" stop-color="#b32ed9" stop-opacity="1"></stop></linearGradient></defs><defs><linearGradient id="grad1_3" x1="33.3%" y1="0%" x2="100%" y2="100%"><stop offset="20%" stop-color="#e33dbb" stop-opacity="1"></stop><stop offset="80%" stop-color="#fb60a5" stop-opacity="1"></stop></linearGradient></defs><defs><linearGradient id="grad1_4" x1="33.3%" y1="0%" x2="100%" y2="100%"><stop offset="20%" stop-color="#ff879c" stop-opacity="1"></stop><stop offset="80%" stop-color="#fb60a5" stop-opacity="1"></stop></linearGradient></defs><defs><linearGradient id="grad1_5" x1="33.3%" y1="0%" x2="100%" y2="100%"><stop offset="20%" stop-color="#ff879c" stop-opacity="1"></stop><stop offset="80%" stop-color="#ffaca4" stop-opacity="1"></stop></linearGradient></defs><defs><linearGradient id="grad1_6" x1="33.3%" y1="0%" x2="100%" y2="100%"><stop offset="20%" stop-color="#fbcdbd" stop-opacity="1"></stop><stop offset="80%" stop-color="#ffaca4" stop-opacity="1"></stop></linearGradient></defs><defs><linearGradient id="grad1_7" x1="33.3%" y1="0%" x2="100%" y2="100%"><stop offset="20%" stop-color="#fbcdbd" stop-opacity="1"></stop><stop offset="80%" stop-color="#f4ebe5" stop-opacity="1"></stop></linearGradient></defs><defs><linearGradient id="grad2_0" x1="0%" y1="0%" x2="66.7%" y2="100%"><stop offset="20%" stop-color="#423cfa" stop-opacity="1"></stop><stop offset="80%" stop-color="#423cfa" stop-opacity="1"></stop></linearGradient></defs><defs><linearGradient id="grad2_1" x1="0%" y1="0%" x2="66.7%" y2="100%"><stop offset="20%" stop-color="#b32ed9" stop-opacity="1"></stop><stop offset="80%" stop-color="#423cfa" stop-opacity="1"></stop></linearGradient></defs><defs><linearGradient id="grad2_2" x1="0%" y1="0%" x2="66.7%" y2="100%"><stop offset="20%" stop-color="#b32ed9" stop-opacity="1"></stop><stop offset="80%" stop-color="#e33dbb" stop-opacity="1"></stop></linearGradient></defs><defs><linearGradient id="grad2_3" x1="0%" y1="0%" x2="66.7%" y2="100%"><stop offset="20%" stop-color="#fb60a5" stop-opacity="1"></stop><stop offset="80%" stop-color="#e33dbb" stop-opacity="1"></stop></linearGradient></defs><defs><linearGradient id="grad2_4" x1="0%" y1="0%" x2="66.7%" y2="100%"><stop offset="20%" stop-color="#fb60a5" stop-opacity="1"></stop><stop offset="80%" stop-color="#ff879c" stop-opacity="1"></stop></linearGradient></defs><defs><linearGradient id="grad2_5" x1="0%" y1="0%" x2="66.7%" y2="100%"><stop offset="20%" stop-color="#ffaca4" stop-opacity="1"></stop><stop offset="80%" stop-color="#ff879c" stop-opacity="1"></stop></linearGradient></defs><defs><linearGradient id="grad2_6" x1="0%" y1="0%" x2="66.7%" y2="100%"><stop offset="20%" stop-color="#ffaca4" stop-opacity="1"></stop><stop offset="80%" stop-color="#fbcdbd" stop-opacity="1"></stop></linearGradient></defs><defs><linearGradient id="grad2_7" x1="0%" y1="0%" x2="66.7%" y2="100%"><stop offset="20%" stop-color="#f4ebe5" stop-opacity="1"></stop><stop offset="80%" stop-color="#fbcdbd" stop-opacity="1"></stop></linearGradient></defs><g transform="translate(900, 0)"><path d="M0 486.7C-48.7 442.7 -97.5 398.7 -157.7 380.6C-217.9 362.6 -289.5 370.6 -342.2 342.2C-395 313.9 -428.8 249.4 -449.7 186.3C-470.6 123.2 -478.7 61.6 -486.7 0L0 0Z" fill="#f7ddcf"></path><path d="M0 425.9C-42.6 387.4 -85.3 348.8 -138 333.1C-190.6 317.3 -253.3 324.2 -299.5 299.5C-345.6 274.7 -375.2 218.2 -393.5 163C-411.8 107.8 -418.9 53.9 -425.9 0L0 0Z" fill="#febdae"></path><path d="M0 365.1C-36.6 332 -73.1 299 -118.2 285.5C-163.4 271.9 -217.1 277.9 -256.7 256.7C-296.2 235.4 -321.6 187 -337.3 139.7C-353 92.4 -359 46.2 -365.1 0L0 0Z" fill="#ff9a9e"></path><path d="M0 304.2C-30.5 276.7 -60.9 249.2 -98.5 237.9C-136.2 226.6 -180.9 231.6 -213.9 213.9C-246.9 196.2 -268 155.8 -281.1 116.4C-294.1 77 -299.2 38.5 -304.2 0L0 0Z" fill="#ff749f"></path><path d="M0 243.4C-24.4 221.4 -48.7 199.3 -78.8 190.3C-108.9 181.3 -144.8 185.3 -171.1 171.1C-197.5 157 -214.4 124.7 -224.8 93.1C-235.3 61.6 -239.3 30.8 -243.4 0L0 0Z" fill="#f14eae"></path><path d="M0 182.5C-18.3 166 -36.6 149.5 -59.1 142.7C-81.7 136 -108.6 139 -128.3 128.3C-148.1 117.7 -160.8 93.5 -168.6 69.9C-176.5 46.2 -179.5 23.1 -182.5 0L0 0Z" fill="#cf31c9"></path><path d="M0 121.7C-12.2 110.7 -24.4 99.7 -39.4 95.2C-54.5 90.6 -72.4 92.6 -85.6 85.6C-98.7 78.5 -107.2 62.3 -112.4 46.6C-117.7 30.8 -119.7 15.4 -121.7 0L0 0Z" fill="#8b33ea"></path><path d="M0 60.8C-6.1 55.3 -12.2 49.8 -19.7 47.6C-27.2 45.3 -36.2 46.3 -42.8 42.8C-49.4 39.2 -53.6 31.2 -56.2 23.3C-58.8 15.4 -59.8 7.7 -60.8 0L0 0Z" fill="#423cfa"></path></g><g transform="translate(0, 600)"><path d="M0 -486.7C55.7 -454.6 111.3 -422.4 164.2 -396.3C217 -370.3 267.1 -350.4 318.2 -318.2C369.3 -286 421.4 -241.4 449.7 -186.3C478 -131.2 482.4 -65.6 486.7 0L0 0Z" fill="#f7ddcf"></path><path d="M0 -425.9C48.7 -397.7 97.4 -369.6 143.6 -346.8C189.9 -324 233.7 -306.6 278.4 -278.4C323.1 -250.2 368.8 -211.2 393.5 -163C418.2 -114.8 422.1 -57.4 425.9 0L0 0Z" fill="#febdae"></path><path d="M0 -365.1C41.7 -340.9 83.5 -316.8 123.1 -297.3C162.8 -277.7 200.3 -262.8 238.6 -238.6C277 -214.5 316.1 -181 337.3 -139.7C358.5 -98.4 361.8 -49.2 365.1 0L0 0Z" fill="#ff9a9e"></path><path d="M0 -304.2C34.8 -284.1 69.6 -264 102.6 -247.7C135.6 -231.4 166.9 -219 198.9 -198.9C230.8 -178.7 263.4 -150.9 281.1 -116.4C298.7 -82 301.5 -41 304.2 0L0 0Z" fill="#ff749f"></path><path d="M0 -243.4C27.8 -227.3 55.7 -211.2 82.1 -198.2C108.5 -185.2 133.5 -175.2 159.1 -159.1C184.6 -143 210.7 -120.7 224.8 -93.1C239 -65.6 241.2 -32.8 243.4 0L0 0Z" fill="#f14eae"></path><path d="M0 -182.5C20.9 -170.5 41.7 -158.4 61.6 -148.6C81.4 -138.9 100.2 -131.4 119.3 -119.3C138.5 -107.2 158 -90.5 168.6 -69.9C179.2 -49.2 180.9 -24.6 182.5 0L0 0Z" fill="#cf31c9"></path><path d="M0 -121.7C13.9 -113.6 27.8 -105.6 41 -99.1C54.3 -92.6 66.8 -87.6 79.5 -79.5C92.3 -71.5 105.4 -60.3 112.4 -46.6C119.5 -32.8 120.6 -16.4 121.7 0L0 0Z" fill="#8b33ea"></path><path d="M0 -60.8C7 -56.8 13.9 -52.8 20.5 -49.5C27.1 -46.3 33.4 -43.8 39.8 -39.8C46.2 -35.7 52.7 -30.2 56.2 -23.3C59.7 -16.4 60.3 -8.2 60.8 0L0 0Z" fill="#423cfa"></path></g></svg>