<svg id="visual" viewBox="0 0 900 600" width="900" height="600" xmlns="http://www.w3.org/2000/svg" xmlns:xlink="http://www.w3.org/1999/xlink" version="1.1"><g stroke-width="1" stroke-linejoin="bevel"><path d="M499 274L470 234L387 321Z" fill="#081a28" stroke="#081a28"></path><path d="M470 234L405 192L387 321Z" fill="#0c2435" stroke="#0c2435"></path><path d="M387 321L467 434L499 274Z" fill="#246688" stroke="#246688"></path><path d="M390 427L467 434L387 321Z" fill="#1d4e6b" stroke="#1d4e6b"></path><path d="M387 321L336 400L390 427Z" fill="#1d4e6b" stroke="#1d4e6b"></path><path d="M276 317L336 400L387 321Z" fill="#246688" stroke="#246688"></path><path d="M405 192L276 317L387 321Z" fill="#205a7a" stroke="#205a7a"></path><path d="M591 398L612 319L499 274Z" fill="#297ea6" stroke="#297ea6"></path><path d="M499 274L614 210L470 234Z" fill="#205a7a" stroke="#205a7a"></path><path d="M483 61L421 64L405 192Z" fill="#1d4e6b" stroke="#1d4e6b"></path><path d="M467 434L591 398L499 274Z" fill="#00101c" stroke="#00101c"></path><path d="M612 319L614 210L499 274Z" fill="#205a7a" stroke="#205a7a"></path><path d="M327 478L392 475L390 427Z" fill="#112e42" stroke="#112e42"></path><path d="M390 427L392 475L467 434Z" fill="#19435d" stroke="#19435d"></path><path d="M467 434L529 496L591 398Z" fill="#0c2435" stroke="#0c2435"></path><path d="M304 66L279 167L405 192Z" fill="#00101c" stroke="#00101c"></path><path d="M405 192L279 167L276 317Z" fill="#297ea6" stroke="#297ea6"></path><path d="M174 182L235 336L276 317Z" fill="#15384f" stroke="#15384f"></path><path d="M276 317L235 336L336 400Z" fill="#19435d" stroke="#19435d"></path><path d="M336 400L327 478L390 427Z" fill="#112e42" stroke="#112e42"></path><path d="M201 419L327 478L336 400Z" fill="#081a28" stroke="#081a28"></path><path d="M483 61L405 192L470 234Z" fill="#277297" stroke="#277297"></path><path d="M380 600L529 496L392 475Z" fill="#19435d" stroke="#19435d"></path><path d="M392 475L529 496L467 434Z" fill="#19435d" stroke="#19435d"></path><path d="M614 210L483 61L470 234Z" fill="#246688" stroke="#246688"></path><path d="M666 397L676 287L612 319Z" fill="#297ea6" stroke="#297ea6"></path><path d="M612 319L676 287L614 210Z" fill="#00101c" stroke="#00101c"></path><path d="M666 397L612 319L591 398Z" fill="#15384f" stroke="#15384f"></path><path d="M691 498L666 397L591 398Z" fill="#297ea6" stroke="#297ea6"></path><path d="M664 121L626 110L614 210Z" fill="#19435d" stroke="#19435d"></path><path d="M614 210L626 110L483 61Z" fill="#0c2435" stroke="#0c2435"></path><path d="M421 0L304 66L421 64Z" fill="#1d4e6b" stroke="#1d4e6b"></path><path d="M421 64L304 66L405 192Z" fill="#205a7a" stroke="#205a7a"></path><path d="M70 360L201 419L235 336Z" fill="#0c2435" stroke="#0c2435"></path><path d="M529 496L574 509L591 398Z" fill="#246688" stroke="#246688"></path><path d="M539 600L574 509L529 496Z" fill="#19435d" stroke="#19435d"></path><path d="M823 300L691 218L676 287Z" fill="#246688" stroke="#246688"></path><path d="M676 287L691 218L614 210Z" fill="#0c2435" stroke="#0c2435"></path><path d="M174 182L276 317L279 167Z" fill="#00101c" stroke="#00101c"></path><path d="M235 336L201 419L336 400Z" fill="#1d4e6b" stroke="#1d4e6b"></path><path d="M691 218L664 121L614 210Z" fill="#112e42" stroke="#112e42"></path><path d="M493 0L421 0L483 61Z" fill="#081a28" stroke="#081a28"></path><path d="M164 74L174 182L279 167Z" fill="#15384f" stroke="#15384f"></path><path d="M493 0L483 61L568 0Z" fill="#19435d" stroke="#19435d"></path><path d="M483 61L421 0L421 64Z" fill="#1d4e6b" stroke="#1d4e6b"></path><path d="M568 0L483 61L626 110Z" fill="#00101c" stroke="#00101c"></path><path d="M679 0L568 0L626 110Z" fill="#112e42" stroke="#112e42"></path><path d="M306 600L380 600L327 478Z" fill="#277297" stroke="#277297"></path><path d="M327 478L380 600L392 475Z" fill="#19435d" stroke="#19435d"></path><path d="M380 600L539 600L529 496Z" fill="#277297" stroke="#277297"></path><path d="M574 509L691 498L591 398Z" fill="#15384f" stroke="#15384f"></path><path d="M594 600L691 498L574 509Z" fill="#246688" stroke="#246688"></path><path d="M666 397L784 398L676 287Z" fill="#19435d" stroke="#19435d"></path><path d="M421 0L260 0L304 66Z" fill="#0c2435" stroke="#0c2435"></path><path d="M304 66L164 74L279 167Z" fill="#081a28" stroke="#081a28"></path><path d="M169 524L306 600L327 478Z" fill="#1d4e6b" stroke="#1d4e6b"></path><path d="M226 0L164 74L304 66Z" fill="#205a7a" stroke="#205a7a"></path><path d="M539 600L594 600L574 509Z" fill="#205a7a" stroke="#205a7a"></path><path d="M260 0L226 0L304 66Z" fill="#081a28" stroke="#081a28"></path><path d="M201 419L169 524L327 478Z" fill="#112e42" stroke="#112e42"></path><path d="M92 524L169 524L201 419Z" fill="#00101c" stroke="#00101c"></path><path d="M69 295L235 336L174 182Z" fill="#112e42" stroke="#112e42"></path><path d="M691 498L784 398L666 397Z" fill="#19435d" stroke="#19435d"></path><path d="M814 130L679 0L664 121Z" fill="#1d4e6b" stroke="#1d4e6b"></path><path d="M79 181L69 295L174 182Z" fill="#00101c" stroke="#00101c"></path><path d="M814 130L664 121L691 218Z" fill="#205a7a" stroke="#205a7a"></path><path d="M664 121L679 0L626 110Z" fill="#19435d" stroke="#19435d"></path><path d="M81 131L79 181L174 182Z" fill="#277297" stroke="#277297"></path><path d="M69 295L70 360L235 336Z" fill="#205a7a" stroke="#205a7a"></path><path d="M784 398L823 300L676 287Z" fill="#15384f" stroke="#15384f"></path><path d="M124 0L81 131L164 74Z" fill="#15384f" stroke="#15384f"></path><path d="M164 74L81 131L174 182Z" fill="#081a28" stroke="#081a28"></path><path d="M0 182L0 338L69 295Z" fill="#15384f" stroke="#15384f"></path><path d="M823 300L829 217L691 218Z" fill="#297ea6" stroke="#297ea6"></path><path d="M829 217L814 130L691 218Z" fill="#277297" stroke="#277297"></path><path d="M92 524L171 600L169 524Z" fill="#1d4e6b" stroke="#1d4e6b"></path><path d="M169 524L171 600L306 600Z" fill="#205a7a" stroke="#205a7a"></path><path d="M691 498L834 530L784 398Z" fill="#246688" stroke="#246688"></path><path d="M900 393L900 292L823 300Z" fill="#19435d" stroke="#19435d"></path><path d="M594 600L718 600L691 498Z" fill="#246688" stroke="#246688"></path><path d="M70 360L92 524L201 419Z" fill="#15384f" stroke="#15384f"></path><path d="M226 0L124 0L164 74Z" fill="#19435d" stroke="#19435d"></path><path d="M69 295L0 338L70 360Z" fill="#277297" stroke="#277297"></path><path d="M70 360L0 503L92 524Z" fill="#1d4e6b" stroke="#1d4e6b"></path><path d="M0 182L69 295L79 181Z" fill="#297ea6" stroke="#297ea6"></path><path d="M0 182L79 181L0 131Z" fill="#297ea6" stroke="#297ea6"></path><path d="M0 338L0 375L70 360Z" fill="#205a7a" stroke="#205a7a"></path><path d="M0 131L79 181L81 131Z" fill="#297ea6" stroke="#297ea6"></path><path d="M823 300L900 230L829 217Z" fill="#1d4e6b" stroke="#1d4e6b"></path><path d="M829 217L900 125L814 130Z" fill="#205a7a" stroke="#205a7a"></path><path d="M900 393L823 300L784 398Z" fill="#081a28" stroke="#081a28"></path><path d="M718 600L834 530L691 498Z" fill="#15384f" stroke="#15384f"></path><path d="M900 292L900 230L823 300Z" fill="#00101c" stroke="#00101c"></path><path d="M0 0L0 131L81 131Z" fill="#081a28" stroke="#081a28"></path><path d="M900 500L900 393L784 398Z" fill="#081a28" stroke="#081a28"></path><path d="M900 125L819 0L814 130Z" fill="#081a28" stroke="#081a28"></path><path d="M814 130L819 0L679 0Z" fill="#00101c" stroke="#00101c"></path><path d="M92 524L74 600L171 600Z" fill="#1d4e6b" stroke="#1d4e6b"></path><path d="M0 503L74 600L92 524Z" fill="#0c2435" stroke="#0c2435"></path><path d="M0 375L0 503L70 360Z" fill="#277297" stroke="#277297"></path><path d="M900 230L900 125L829 217Z" fill="#246688" stroke="#246688"></path><path d="M718 600L832 600L834 530Z" fill="#297ea6" stroke="#297ea6"></path><path d="M834 530L900 500L784 398Z" fill="#081a28" stroke="#081a28"></path><path d="M900 600L900 500L834 530Z" fill="#277297" stroke="#277297"></path><path d="M124 0L0 0L81 131Z" fill="#15384f" stroke="#15384f"></path><path d="M0 503L0 600L74 600Z" fill="#19435d" stroke="#19435d"></path><path d="M900 125L900 0L819 0Z" fill="#15384f" stroke="#15384f"></path><path d="M832 600L900 600L834 530Z" fill="#297ea6" stroke="#297ea6"></path></g></svg>